<?xml version="1.0" encoding="iso-8859-1"?>
<!-- Generator: Adobe Illustrator 17.0.0, SVG Export Plug-In . SVG Version: 6.00 Build 0)  -->
<!DOCTYPE svg PUBLIC "-//W3C//DTD SVG 1.1//EN" "http://www.w3.org/Graphics/SVG/1.1/DTD/svg11.dtd">
<svg version="1.1" xmlns="http://www.w3.org/2000/svg" xmlns:xlink="http://www.w3.org/1999/xlink" x="0px" y="0px" width="800px"
	 height="600px" viewBox="0 0 800 600" style="enable-background:new 0 0 800 600;" xml:space="preserve">
<g id="Layer_2">
	<rect style="fill:#8FBAA1;" width="800" height="600"/>
</g>
<g id="Layer_1">
	<g>
		<path style="fill:#F5F5F5;" d="M366.568,375.932l-9-1.961c0,0,1.193-3.578,2.952-10.435l8.675,2.122
			C368.374,368.935,367.505,372.347,366.568,375.932z"/>
		<path style="fill:#FDDCBE;" d="M360.52,363.536c2.952-11.511,8.531-44.083,11.728-72.72c0,0,0.271-2.099,1.567-2.099
			c1.296,0,0.92,2.842,0.92,2.842s0.322-2.312,1.571-2.088c1.519,0.272,0.943,2.722,0.943,2.722s0.426-2.339,1.657-2.126
			c1.355,0.234,1.009,2.702,1.009,2.702s0.305-1.984,1.801-1.982c1.496,0.003,0.852,3.113,0.852,3.113
			c-0.855,4.022-3.815,33.538-13.373,71.757L360.52,363.536z"/>
		<path style="fill:#F2F2F2;" d="M360.52,363.535c0.987-3.847,2.268-10.056,3.654-17.676c1.318,3.629,3.748,10.592,5.6,17.445
			c-0.192,0.783-0.382,1.563-0.58,2.353c-0.82,3.278-1.69,6.69-2.626,10.275l-9-1.961
			C357.568,373.971,358.76,370.393,360.52,363.535z"/>
		<path style="fill:#F2F2F2;" d="M391.02,474.829c-0.015,4.428-23.873,8.019-53.288,8.019c-29.415,0-53.25-3.59-53.235-8.019
			c0.015-4.429,23.873-8.019,53.288-8.019C367.2,466.81,391.034,470.4,391.02,474.829z"/>
		<path style="fill:#FDDCBE;" d="M365.925,366.74c0,0-5.019-96.037-75.712-59.035c0,0-11.541,24.307-7.216,69.574
			C339.967,382.74,365.925,366.74,365.925,366.74z"/>
		<path style="fill:#574939;" d="M346.917,267.159c0,0,40.539,53.581-47.867,58.268l0.508,17.274c0,0-8.385-6.46-9.5,1.804
			c-1.114,8.263,9.368,4.199,9.368,4.199s-6.917,21.946-16.12,28.605c0,0-35.189-70.831-1.906-73.467
			c0,0-0.273-12.794,17.212-21.136C323.555,270.806,340.327,298.301,346.917,267.159z"/>
		<path style="fill:#574939;" d="M295.085,426.757l2.999,19.697l-2.808,28.272c0,0,29.586,8,22.129-3.671
			c-6.887-10.779-17.634-1.824-17.634-1.824l5.296-23.791l0.575-13.215c0,0,29.99,1.228,55.647-6.78l1.763,16.261l-4.974,29.862
			c0,0,27.386,9.193,19.804-3.54c-4.204-7.059-14.532-2.629-14.532-2.629l6.558-23.729l0.405-24.39L295.085,426.757z"/>
		<path style="fill:#F5F5F5;" d="M365.925,366.74l4.388,50.54c0,0-30.679,9.747-75.228,9.476l-12.088-49.478
			C282.997,377.279,334.574,380.793,365.925,366.74z"/>
		<polygon style="fill:#F2F2F2;" points="348.236,376.568 350.064,379.293 348.247,382.892 353.063,412.806 345.5,420.261 
			337.837,413.775 344.041,383.667 341.161,380.345 342.253,377.859 		"/>
		<polygon style="fill:#574939;" points="348.236,376.568 350.064,379.293 348.247,382.892 354.809,412.113 347.245,419.568 
			339.582,413.082 344.041,383.667 341.161,380.345 342.253,377.859 		"/>
		<path style="fill:#EB7D86;" d="M348.956,349.975c0,0-15.388,1.62-24.333,5.909c0,0,0.874,12.596,15.172,9.558
			C353.947,362.434,348.956,349.975,348.956,349.975z"/>
		<path style="fill:#F5F5F5;" d="M285.627,388.456l7.191-5.757c0,0-2.658-2.675-7.282-8.037l-6.828,5.756
			C280.9,382.991,283.195,385.66,285.627,388.456z"/>
		<path style="fill:#FDDCBE;" d="M285.536,374.662c-7.761-8.998-26.455-33.982-42.048-58.215c0,0-1.148-1.88-2.643-0.805
			c-1.133,0.815,0.598,2.936,0.598,2.936s-1.661-1.661-2.624-0.797c-0.963,0.864,0.532,2.724,0.532,2.724s-1.545-1.376-2.284-0.621
			c-0.739,0.754,0.324,2.183,0.324,2.183s-0.926-1.042-1.775-0.305c-0.849,0.737,0,2.037,0,2.037
			c2.554,3.223,17.544,26.633,43.094,56.62L285.536,374.662z"/>
		
			<ellipse transform="matrix(0.9778 -0.2097 0.2097 0.9778 -64.1902 73.6326)" style="fill:#574939;" cx="315.166" cy="339.546" rx="2.875" ry="5.584"/>
		
			<ellipse transform="matrix(0.9778 -0.2097 0.2097 0.9778 -61.8319 80.8241)" style="fill:#574939;" cx="350.261" cy="332.02" rx="2.875" ry="5.584"/>
	</g>
	<g>
		<path style="fill:#F2F2F2;" d="M560.942,472.977c-0.015,4.582-24.7,8.297-55.135,8.297c-30.435,0-55.095-3.715-55.08-8.297
			c0.015-4.582,24.7-8.297,55.135-8.297C536.297,464.68,560.957,468.395,560.942,472.977z"/>
		<g>
			<g>
				<g>
					<g>
						<g>
							<g>
								<g>
									<path style="fill:#FDDCBE;" d="M536.897,366.73c0,0-7.013-94.451-73.516-59.804c0,0-11.885,23.754-8.539,68.516
										C510.953,381.991,536.897,366.73,536.897,366.73z"/>
								</g>
								<g>
									<path style="fill:#574939;" d="M535.167,318.835c-14.913-5.565-55.777-0.837-71.535,9.233l3.118,17.791
										c0,0-9.304-5.473-8.71,2.782c0.605,8.404,8.945,3.259,8.945,3.259s-2.665,17.438-12.145,23.541
										c0.395,0.629-34.45-56.284-8.644-58.41c0,0-1.374-18.823,18.404-28.423C492.904,274.871,523.824,285.843,535.167,318.835z"
										/>
								</g>
								<g>
									<g>
										<path style="fill:#FDDCBE;" d="M440.123,325.132c-0.067,0.004-0.106,0.005-0.106,0.005S440.057,325.134,440.123,325.132z"
											/>
									</g>
									<g>
										<path style="fill:#FDDCBE;" d="M440.764,327.701c-0.08-0.001-0.133-0.005-0.133-0.005S440.683,327.694,440.764,327.701z"
											/>
									</g>
								</g>
							</g>
							<g>
								<path style="fill:#574939;" d="M465.763,425.786l2.724,26.232l-1.713,21.874c0,0,29.205,7.897,21.844-3.624
									c-6.798-10.641-17.406-1.8-17.406-1.8l4.168-17.451l0.69-19.62c0,0,30.207,1.823,55.69-5.557l0.856,22.021l-4.486,22.915
									c0,0,27.667,9.075,20.183-3.494c-4.149-6.968-14.344-2.595-14.344-2.595l5.414-16.86l0.814-29.858L465.763,425.786z"/>
							</g>
							<g>
								<g>
									<g>
										<path style="fill:#F5F5F5;" d="M536.897,366.73l3.3,51.236c0,0-30.475,8.994-74.435,7.819l-10.921-50.344
											C454.842,375.441,505.671,379.961,536.897,366.73z"/>
									</g>
								</g>
							</g>
							<g>
								<g>
									<g>
										<polygon style="fill:#574939;" points="519.241,376.069 520.988,378.796 519.122,382.31 525.002,411.282 517.386,418.485 
											509.956,411.928 514.956,382.989 512.181,379.652 513.309,377.221 										"/>
									</g>
								</g>
							</g>
							<g>
								<g>
									<path style="fill:#E6E6E6;" d="M533.013,421.074c0.427,0.473,1.031,0.414,1.583,0.194
										c-0.289,0.495-0.443,1.064-0.046,1.504c0.386,0.425,0.917,0.418,1.426,0.249c-0.235,0.459-0.326,0.96,0.033,1.357
										c0.426,0.47,1.029,0.413,1.581,0.192c-0.29,0.497-0.443,1.065-0.045,1.503c0.778,0.857,1.801,0.218,2.648-0.429
										l0.006-7.678h0l-0.307-4.775c-1.878,1.839-3.719,3.449-5.311,4.725C534.226,418.199,532.124,420.094,533.013,421.074z"/>
								</g>
							</g>
							<g>
								<g>
									<path style="fill:#FDDCBE;" d="M536.897,366.73l0.625,9.708c29.88,8.52,8.224,31.773-2.4,40.286
										c-0.353,0.283-2.455,2.178-1.566,3.158c0.427,0.473,1.03,0.414,1.582,0.194c-0.289,0.495-0.443,1.064-0.046,1.504
										c0.386,0.426,0.917,0.418,1.426,0.249c-0.235,0.459-0.327,0.96,0.033,1.358c0.426,0.47,1.029,0.412,1.581,0.192
										c-0.29,0.497-0.443,1.065-0.046,1.503c0.83,0.915,1.94,0.124,2.818-0.56C565.196,405.369,575.494,376.068,536.897,366.73z"
										/>
								</g>
							</g>
							<g>
								<g>
									<path style="fill:#F5F5F5;" d="M536.897,366.73l0.625,9.708c3.215,0.917,5.83,2.005,7.93,3.226l4.025-8.378
										C546.048,369.478,541.884,367.936,536.897,366.73z"/>
								</g>
							</g>
							<g>
								<g>
									<path style="fill:#E6E6E6;" d="M537.523,376.438c0.782,0.223,1.526,0.456,2.238,0.699l-2.864-10.407L537.523,376.438z"/>
								</g>
							</g>
							<g>
								<g>
									<path style="fill:none;" d="M438.717,323.215c-0.066,0.002-0.107,0.005-0.107,0.005S438.65,323.219,438.717,323.215z"/>
								</g>
								<g>
									<path style="fill:none;" d="M439.358,325.784c-0.08-0.006-0.133-0.005-0.133-0.005S439.278,325.782,439.358,325.784z"/>
								</g>
							</g>
							<g>
								<g>
									<g>
										<path style="fill:#EB7D86;" d="M515.769,351.69c0,0-15.261,0.628-24.343,4.291c0,0,0.068,12.462,14.344,10.367
											C519.901,364.275,515.769,351.69,515.769,351.69z"/>
									</g>
								</g>
							</g>
						</g>
						<g>
							<g>
								<path style="fill:#FDDCBE;" d="M454.922,375.579l2.027,9.514c-26.456,16.294,0.688,32.813,13.221,38.13
									c0.416,0.177,2.953,1.432,2.363,2.615c-0.283,0.571-0.88,0.678-1.471,0.615c0.412,0.399,0.714,0.905,0.451,1.436
									c-0.257,0.514-0.77,0.651-1.305,0.626c0.35,0.378,0.574,0.836,0.336,1.316c-0.283,0.568-0.879,0.676-1.47,0.613
									c0.414,0.4,0.715,0.906,0.451,1.435c-0.551,1.106-1.834,0.645-2.864,0.224C438.145,420.438,420.297,395.021,454.922,375.579
									z"/>
							</g>
						</g>
						<g>
							<g>
								<path style="fill:#F5F5F5;" d="M454.922,375.579l2.027,9.514c-2.847,1.753-5.069,3.509-6.76,5.253l-6.144-6.974
									C446.857,380.703,450.448,378.091,454.922,375.579z"/>
							</g>
						</g>
					</g>
				</g>
			</g>
			
				<ellipse transform="matrix(-0.9757 0.2193 -0.2193 -0.9757 1097.7979 544.8854)" style="fill:#574939;" cx="518.66" cy="333.367" rx="3.046" ry="5.917"/>
			
				<ellipse transform="matrix(-0.9757 0.2193 -0.2193 -0.9757 1026.3146 569.4995)" style="fill:#574939;" cx="481.552" cy="341.707" rx="3.046" ry="5.917"/>
		</g>
	</g>
	<g>
		<g>
			<path style="fill:#F2F2F2;" d="M210.59,473.06c-0.017,5.022-27.071,9.093-60.428,9.093c-33.357,0-60.384-4.071-60.368-9.093
				c0.017-5.022,27.071-9.093,60.428-9.093C183.579,463.967,210.606,468.039,210.59,473.06z"/>
			<g>
				<g>
					<g>
						<g>
							<g>
								<path style="fill:#FDDBBB;" d="M177.197,368.288l6.538-3.441c9.242,32.443,38.052,13.742,47.322,3.227
									c0.308-0.349,2.359-2.419,3.323-1.458c0.466,0.462,0.376,1.08,0.123,1.637c0.523-0.273,1.116-0.404,1.549,0.026
									c0.419,0.418,0.385,0.964,0.187,1.478c0.483-0.22,1.004-0.289,1.395,0.099c0.463,0.461,0.375,1.078,0.121,1.636
									c0.525-0.274,1.117-0.404,1.548,0.026c0.902,0.898,0.074,2.038-0.712,2.871
									C218.014,396.207,187.212,404.773,177.197,368.288z"/>
							</g>
						</g>
						<path style="fill:#F5F5F5;" d="M183.735,364.848l-6.538,3.441c1.74,6.337,4.105,11.38,6.932,15.266l5.685-6.473
							C187.364,374.24,185.276,370.259,183.735,364.848z"/>
						<g>
							<path style="fill:#E6E6E6;" d="M183.735,364.848l-6.538,3.441c2.497,9.098,6.287,15.393,10.889,19.382l-3.671-20.649
								C184.179,366.32,183.95,365.602,183.735,364.848z"/>
						</g>
						<g>
							<g>
								<path style="fill:#FDDBBB;" d="M183.667,363.208c0,0-6.253-99.342-75.035-62.386c0,0-20.339,16.755-9.543,70.51
									C156.791,378.694,183.667,363.208,183.667,363.208z"/>
							</g>
							<g>
								<path style="fill:#574939;" d="M112.176,339.365l-0.034-15.985c37.37-2.818,64.385-13.091,64.385-13.091
									c-8.605-33.38-39.151-33.504-54.218-29.901c-19.118,4.182-26.348,17.433-27.96,21.996c-1.56-1.775-1.875-4.102-1.875-4.102
									c-2.507,3.478-0.901,6.204-0.901,6.204c-3.759,0.304-4.824,3.952-4.824,3.952c1.217-0.442,2.375-0.473,3.379-0.327
									c-19.158,10.131,8.959,63.22,8.959,63.22c7.919-5.507,12.981-26.236,12.981-26.236s-8.601,3.726-7.888-3.294
									C104.894,334.782,112.176,339.365,112.176,339.365z"/>
							</g>
							<g>
								<g>
									<path style="fill:#FDDBBB;" d="M84.485,319.31c-0.07,0.003-0.11,0.004-0.11,0.004S84.417,319.312,84.485,319.31z"/>
								</g>
								<g>
									<path style="fill:#FDDBBB;" d="M85.116,321.962c-0.082-0.002-0.137-0.006-0.137-0.006S85.034,321.955,85.116,321.962z"/>
								</g>
							</g>
						</g>
						<g>
							<path style="fill:#574939;" d="M109.774,423.229l1.44,23.306l-1.77,25.958c0,0,25.131,7.935,18.321-2.724
								c-6.289-9.844-14.216-1.665-14.216-1.665l4.763-22.6l2.013-16.384c0,0,31.081,2.21,57.401-5.108l-1.376,18.064l-5.27,30.05
								c0,0,25.596,8.395,18.672-3.232c-5.362-8.345-13.899-1.772-13.899-1.772l7.466-25.081l3.183-26.041L109.774,423.229z"/>
						</g>
						<g>
							<g>
								<g>
									<path style="fill:#F5F5F5;" d="M183.667,363.208l2.833,52.79c0,0-31.477,8.924-76.726,7.23l-10.685-51.897
										C99.089,371.332,151.37,376.486,183.667,363.208z"/>
								</g>
							</g>
						</g>
						<g>
							<g>
								<g>
									<polygon style="fill:#574939;" points="165.384,372.629 167.154,375.456 165.193,379.054 170.928,408.949 163.007,416.281 
										155.429,409.448 160.896,379.707 158.076,376.24 159.264,373.749 									"/>
								</g>
							</g>
						</g>
						<g>
							<g>
								<path style="fill:none;" d="M83.059,317.321c-0.068,0.002-0.11,0.004-0.11,0.004S82.989,317.324,83.059,317.321z"/>
							</g>
							<g>
								<path style="fill:none;" d="M83.69,319.973c-0.083-0.007-0.137-0.007-0.137-0.007S83.607,319.971,83.69,319.973z"/>
							</g>
						</g>
					</g>
				</g>
				<g>
					<g>
						
							<ellipse transform="matrix(-0.9787 0.2054 -0.2054 -0.9787 397.3571 619.6287)" style="fill:#574939;" cx="166.513" cy="330.441" rx="2.836" ry="5.485"/>
					</g>
				</g>
				<g>
					<g>
						
							<ellipse transform="matrix(-0.9787 0.2055 -0.2055 -0.9787 331.2695 640.1296)" style="fill:#574939;" cx="132.401" cy="337.263" rx="2.836" ry="5.485"/>
					</g>
				</g>
				<g>
					<g>
						<path style="fill:#EB7D86;" d="M166.08,345.848c0,0-16.065,1.666-25.41,6.129c0,0,2.061,14.402,16.67,10.001
							C171.509,357.71,166.08,345.848,166.08,345.848z"/>
					</g>
				</g>
			</g>
		</g>
		<g>
			<g>
				<path style="fill:#FDDBBB;" d="M101.029,380.751l-1.939-9.42c-31.644,1.985-39.83-39.692-37.586-53.529
					c0.075-0.46,0.373-3.359-0.982-3.494c-0.652-0.067-1.073,0.395-1.343,0.944c-0.121-0.578-0.396-1.119-1.003-1.181
					c-0.589-0.059-0.989,0.314-1.262,0.793c-0.137-0.513-0.413-0.959-0.962-1.015c-0.65-0.065-1.071,0.395-1.341,0.944
					c-0.121-0.579-0.397-1.119-1.002-1.18c-1.266-0.127-1.621,1.236-1.767,2.372C48.038,345.736,65.117,383.19,101.029,380.751z"/>
			</g>
		</g>
		<g>
			<path style="fill:#F5F5F5;" d="M101.029,380.751l-1.939-9.42c-3.536,0.222-6.777-0.105-9.745-0.874l-1.246,9.348
				C92.094,380.714,96.404,381.065,101.029,380.751z"/>
		</g>
	</g>
	<g>
		<g>
			<polygon style="fill:#FDD5AC;" points="724.905,247.115 729.9,308.368 659.991,310.424 604.254,254.067 649.61,222.487 
				683.623,248.433 			"/>
			<polygon style="fill:#F7F7F7;" points="697.856,245.499 703.81,312.17 720.494,311.443 713.214,244.039 			"/>
			<polygon style="fill:#4D4D4D;" points="710.474,240.849 717.07,316.048 800,312.374 800,235.479 			"/>
			<circle style="fill:#878787;" cx="731.298" cy="300.766" r="7.224"/>
			<circle style="fill:#878787;" cx="751.833" cy="299.568" r="7.224"/>
			
				<rect x="594.342" y="214.417" transform="matrix(0.6906 -0.7232 0.7232 0.6906 22.6151 505.0337)" style="fill:#E6E6E6;" width="14.582" height="23.331"/>
			<path style="fill:#E6E6E6;" d="M558.353,167.947c20.894,19.953,39.879,44.806,39.879,44.806s-9.144,9.575-10.071,10.545
				c-7.416,7.766-32.785-4.426-56.664-27.23c-23.879-22.804-37.224-47.586-29.808-55.351c0.927-0.971,10.071-10.545,10.071-10.545
				S537.459,147.993,558.353,167.947z"/>
			
				<ellipse transform="matrix(0.6906 -0.7232 0.7232 0.6906 47.6884 454.4091)" style="fill:#CCCCCC;" cx="554.996" cy="171.462" rx="19.442" ry="59.785"/>
			<path style="fill:#B3B3B3;" d="M516.082,134.3c-0.63,0.66-0.964,1.688-1.011,3.021c7.664-0.625,26.155,8.029,46.399,27.362
				c20.244,19.333,29.74,37.406,29.468,45.092c1.329-0.109,2.341-0.489,2.971-1.149c4.263-4.464-4.703-25.427-28.457-48.112
				C541.698,137.827,520.346,129.835,516.082,134.3z"/>
			<path style="fill:#BCD6C7;" d="M561.471,164.683c-20.244-19.333-38.735-27.988-46.399-27.362
				c-0.272,7.685,9.223,25.759,29.467,45.092c20.244,19.333,38.735,27.987,46.4,27.362
				C591.211,202.089,581.715,184.016,561.471,164.683z"/>
			<path style="fill:#F2F2F2;" d="M610.364,249.813l59.131,53.156c1.447,1.301,3.675,1.183,4.977-0.265l9.749-10.844
				c1.301-1.447,1.183-3.675-0.265-4.977l-55.359-49.766L610.364,249.813z"/>
			<path style="fill:#4D4D4D;" d="M681.934,292.023l-10.736,11.242c-1.161,1.215-3.086,1.259-4.302,0.099l-65.375-62.433
				c-1.215-1.161-1.259-3.087-0.099-4.302l10.736-11.242c1.161-1.215,3.086-1.26,4.302-0.099l65.375,62.433
				C683.05,288.882,683.094,290.808,681.934,292.023z"/>
			<polygon style="fill:#CCCCCC;" points="588.161,223.298 598.232,212.753 594.928,229.761 			"/>
			<path style="fill:#F2F2F2;" d="M665.178,310.271c4.523-1.018,7.854-5.109,7.743-9.922c-0.126-5.487-4.677-9.833-10.164-9.707
				l-0.128,0.003c0.443-1.182,0.679-2.464,0.648-3.804l0,0c-0.12-5.213-4.14-9.414-9.206-9.896c0.761-1.566,1.178-3.326,1.135-5.186
				h0c-0.139-6.038-4.992-10.845-10.958-11.021c0.665-1.417,1.032-3.001,0.993-4.673v0c-0.133-5.773-4.921-10.346-10.694-10.213
				l-19.124,0.44l-11.168,7.776l55.737,56.356L665.178,310.271z"/>
			<path style="fill:#FDD5AC;" d="M632.816,266.646l-33.384,0.768c-5.215,0.12-9.54-4.01-9.66-9.226l-0.047-2.022
				c-0.12-5.215,4.01-9.54,9.226-9.66l33.384-0.768c5.215-0.12,9.54,4.01,9.66,9.225l0.047,2.022
				C642.161,262.201,638.031,266.526,632.816,266.646z"/>
			<path style="fill:#FDD5AC;" d="M642.038,283.202l-36.079,0.83c-5.636,0.13-10.31-4.334-10.44-9.97l-0.05-2.185
				c-0.13-5.636,4.334-10.311,9.971-10.44l36.079-0.83c5.636-0.13,10.31,4.334,10.44,9.97l0.05,2.185
				C652.138,278.398,647.674,283.072,642.038,283.202z"/>
			<path style="fill:#FDD5AC;" d="M651.092,297.144l-32.512,0.748c-5.079,0.117-9.291-3.906-9.408-8.985l-0.045-1.969
				c-0.117-5.079,3.906-9.291,8.985-9.408l32.512-0.748c5.079-0.117,9.291,3.906,9.408,8.984l0.045,1.969
				C660.193,292.815,656.171,297.027,651.092,297.144z"/>
			<path style="fill:#FDD5AC;" d="M660.952,310.401l-31.729,0.73c-4.957,0.114-9.067-3.812-9.182-8.768l-0.044-1.922
				c-0.114-4.957,3.812-9.067,8.768-9.181l31.729-0.73c4.957-0.114,9.067,3.812,9.182,8.768l0.044,1.922
				C669.834,306.177,665.908,310.287,660.952,310.401z"/>
			<path style="fill:#E6E6E6;" d="M616.809,225.621c-1.408-1.344-3.638-1.293-4.982,0.115l0,0l-9.986-9.536
				c0.247,7.24,4.489,14.072,11.529,17.277l18.462,6.493L616.809,225.621z"/>
			<path style="fill:#FDD5AC;" d="M649.61,222.487l-4.315,22.82l-31.398-12.785c-9.674-4.983-13.476-16.865-8.493-26.539l0,0
				L649.61,222.487z"/>
			<polygon style="fill:#F2F2F2;" points="698.076,247.971 696.461,248.023 695.697,309.374 703.54,309.143 			"/>
		</g>
		<g>
			<defs>
				<path id="SVGID_1_" d="M561.471,164.683c-20.244-19.333-38.735-27.988-46.399-27.362c-0.272,7.685,9.223,25.759,29.467,45.092
					c20.244,19.333,38.735,27.987,46.4,27.362C591.211,202.089,581.715,184.016,561.471,164.683z"/>
			</defs>
			<clipPath id="SVGID_2_">
				<use xlink:href="#SVGID_1_"  style="overflow:visible;"/>
			</clipPath>
			<g style="clip-path:url(#SVGID_2_);">
				<g>
					
						<rect x="489.183" y="166.01" transform="matrix(0.948 0.3182 -0.3182 0.948 82.432 -168.6975)" style="fill:#D2E3D9;" width="136.976" height="4"/>
				</g>
				<g>
					
						<rect x="488.152" y="174.162" transform="matrix(0.948 0.3182 -0.3182 0.948 85.4488 -167.8676)" style="fill:#D2E3D9;" width="136.976" height="7"/>
				</g>
			</g>
		</g>
	</g>
</g>
</svg>
